<mxfile host="app.diagrams.net" modified="2024-01-09T05:41:34.331Z" agent="Mozilla/5.0 (Macintosh; Intel Mac OS X 10_15_7) AppleWebKit/537.36 (KHTML, like Gecko) Chrome/120.0.0.0 Safari/537.36" version="22.1.17" etag="NQFHqo7m6_BiIcddFHJ2" type="github">
  <diagram name="Page-1" id="EoR6iDAETpyvF9_Nocgm">
    <mxGraphModel>
      <root>
        <mxCell id="0" />
        <mxCell id="1" parent="0" />
      </root>
    </mxGraphModel>
  </diagram>
</mxfile>
